# MagicaVoxel @ Ephtracy

# group
o 

# material
mtllib DarkAttack.mtl
usemtl palette

# normals
vn -1 0 0
vn 1 0 0
vn 0 0 1
vn 0 0 -1
vn 0 -1 0
vn 0 1 0

# texcoords
vt 0.400391 0.5
vt 0.416016 0.5
vt 0.720703 0.5
vt 0.841797 0.5

# verts
v -0.3 0.2 0
v -0.3 0.2 -0.1
v -0.3 0.2 -0.2
v -0.3 0.2 -0.3
v -0.3 0.3 0
v -0.3 0.3 -0.1
v -0.3 0.3 -0.2
v -0.3 0.4 0
v -0.3 0.4 -0.3
v -0.2 0.3 0.1
v -0.2 0.3 0
v -0.2 0.4 0.1
v -0.2 0.4 0
v -0.1 0.2 0.1
v -0.1 0.2 0
v -0.1 0.3 0.1
v -0.1 0.3 0
v -0.1 0.4 0.1
v -0.1 0.4 -0.1
v -0.1 0.5 0.1
v -0.1 0.5 -0.1
v 0 0.2 0.3
v 0 0.2 0.2
v 0 0.2 0.1
v 0 0.3 0.3
v 0 0.3 0.2
v 0 0.3 0.1
v 0 0.4 0.3
v 0 0.4 0.1
v -0.2 0.2 -0.2
v -0.2 0.2 -0.3
v -0.2 0.3 -0.2
v -0.2 0.4 -0.2
v -0.2 0.4 -0.3
v -0.1 0.3 -0.1
v -0.1 0.3 -0.2
v -0.1 0.4 -0.1
v -0.1 0.4 -0.2
v 0.1 0.2 0.3
v 0.1 0.2 0.2
v 0.1 0.2 0.1
v 0.1 0.2 0
v 0.1 0.2 -0.1
v 0.1 0.3 0.3
v 0.1 0.3 0.2
v 0.1 0.3 0.1
v 0.1 0.3 0
v 0.1 0.3 -0.1
v 0.1 0.4 0.3
v 0.1 0.4 0.2
v 0.1 0.4 0.1
v 0.1 0.4 0
v 0.1 0.4 -0.1
v 0.1 0.5 0.1
v 0.1 0.5 -0.1
v 0.2 0.2 0.1
v 0.2 0.2 0
v 0.2 0.3 0.2
v 0.2 0.3 0.1
v 0.2 0.3 0
v 0.2 0.4 0.2
v 0.2 0.4 0.1
v 0.3 0.3 0
v 0.3 0.3 -0.1
v 0.3 0.4 0
v 0.3 0.4 -0.1
v 0 0.2 0.3
v 0 0.3 0.3
v 0 0.4 0.3
v 0.1 0.2 0.3
v 0.1 0.3 0.3
v 0.1 0.4 0.3
v 0.1 0.3 0.2
v 0.1 0.4 0.2
v 0.2 0.3 0.2
v 0.2 0.4 0.2
v -0.2 0.3 0.1
v -0.2 0.4 0.1
v -0.1 0.2 0.1
v -0.1 0.3 0.1
v -0.1 0.4 0.1
v -0.1 0.5 0.1
v 0 0.2 0.1
v 0 0.3 0.1
v 0 0.4 0.1
v 0.1 0.2 0.1
v 0.1 0.3 0.1
v 0.1 0.4 0.1
v 0.1 0.5 0.1
v 0.2 0.2 0.1
v 0.2 0.3 0.1
v -0.3 0.2 0
v -0.3 0.3 0
v -0.3 0.4 0
v -0.2 0.3 0
v -0.2 0.4 0
v -0.1 0.2 0
v -0.1 0.3 0
v 0.1 0.3 0
v 0.1 0.4 0
v 0.2 0.3 0
v 0.3 0.3 0
v 0.3 0.4 0
v -0.3 0.2 -0.2
v -0.3 0.3 -0.2
v -0.2 0.2 -0.2
v -0.2 0.3 -0.2
v 0.1 0.3 0.1
v 0.1 0.4 0.1
v 0.2 0.3 0.1
v 0.2 0.4 0.1
v 0.1 0.2 0
v 0.1 0.3 0
v 0.2 0.2 0
v 0.2 0.3 0
v -0.3 0.2 -0.1
v -0.3 0.3 -0.1
v -0.1 0.2 -0.1
v -0.1 0.3 -0.1
v -0.1 0.4 -0.1
v -0.1 0.5 -0.1
v 0.1 0.2 -0.1
v 0.1 0.3 -0.1
v 0.1 0.4 -0.1
v 0.1 0.5 -0.1
v 0.3 0.3 -0.1
v 0.3 0.4 -0.1
v -0.2 0.3 -0.2
v -0.2 0.4 -0.2
v -0.1 0.3 -0.2
v -0.1 0.4 -0.2
v -0.3 0.2 -0.3
v -0.3 0.4 -0.3
v -0.2 0.2 -0.3
v -0.2 0.4 -0.3
v 0 0.2 0.3
v 0.1 0.2 0.3
v 0 0.2 0.2
v 0.1 0.2 0.2
v -0.1 0.2 0.1
v 0 0.2 0.1
v 0.1 0.2 0.1
v 0.2 0.2 0.1
v -0.3 0.2 0
v -0.1 0.2 0
v 0.1 0.2 0
v 0.2 0.2 0
v -0.3 0.2 -0.1
v -0.1 0.2 -0.1
v 0.1 0.2 -0.1
v -0.3 0.2 -0.2
v -0.2 0.2 -0.2
v -0.3 0.2 -0.3
v -0.2 0.2 -0.3
v 0.1 0.3 0.2
v 0.2 0.3 0.2
v -0.2 0.3 0.1
v -0.1 0.3 0.1
v 0.1 0.3 0.1
v 0.2 0.3 0.1
v -0.2 0.3 0
v -0.1 0.3 0
v 0.1 0.3 0
v 0.2 0.3 0
v 0.3 0.3 0
v -0.3 0.3 -0.1
v -0.1 0.3 -0.1
v 0.1 0.3 -0.1
v 0.3 0.3 -0.1
v -0.3 0.3 -0.2
v -0.2 0.3 -0.2
v -0.1 0.3 -0.2
v 0.1 0.3 0.1
v 0.2 0.3 0.1
v 0.1 0.3 0
v 0.2 0.3 0
v 0 0.4 0.3
v 0.1 0.4 0.3
v 0.1 0.4 0.2
v 0.2 0.4 0.2
v -0.2 0.4 0.1
v -0.1 0.4 0.1
v 0 0.4 0.1
v 0.1 0.4 0.1
v 0.2 0.4 0.1
v -0.3 0.4 0
v -0.2 0.4 0
v 0.1 0.4 0
v 0.3 0.4 0
v -0.1 0.4 -0.1
v 0.1 0.4 -0.1
v 0.3 0.4 -0.1
v -0.2 0.4 -0.2
v -0.1 0.4 -0.2
v -0.3 0.4 -0.3
v -0.2 0.4 -0.3
v -0.1 0.5 0.1
v 0.1 0.5 0.1
v -0.1 0.5 -0.1
v 0.1 0.5 -0.1

# faces
f 5/2/1 2/2/1 1/2/1
f 6/2/1 2/2/1 5/2/1
f 7/3/1 4/3/1 3/3/1
f 8/3/1 6/3/1 5/3/1
f 8/3/1 7/3/1 6/3/1
f 9/3/1 4/3/1 7/3/1
f 9/3/1 7/3/1 8/3/1
f 12/3/1 11/3/1 10/3/1
f 13/3/1 11/3/1 12/3/1
f 16/2/1 15/2/1 14/2/1
f 17/2/1 15/2/1 16/2/1
f 20/1/1 19/1/1 18/1/1
f 21/1/1 19/1/1 20/1/1
f 25/4/1 23/4/1 22/4/1
f 26/2/1 24/2/1 23/2/1
f 26/4/1 23/4/1 25/4/1
f 27/2/1 24/2/1 26/2/1
f 28/3/1 26/3/1 25/3/1
f 28/3/1 27/3/1 26/3/1
f 29/3/1 27/3/1 28/3/1
f 30/3/2 31/3/2 32/3/2
f 32/3/2 31/3/2 33/3/2
f 33/3/2 31/3/2 34/3/2
f 35/3/2 36/3/2 37/3/2
f 37/3/2 36/3/2 38/3/2
f 39/4/2 40/4/2 44/4/2
f 40/2/2 41/2/2 45/2/2
f 44/4/2 40/4/2 45/4/2
f 45/2/2 41/2/2 46/2/2
f 42/1/2 43/1/2 47/1/2
f 47/1/2 43/1/2 48/1/2
f 44/3/2 45/3/2 49/3/2
f 49/3/2 45/3/2 50/3/2
f 46/3/2 47/3/2 51/3/2
f 51/3/2 47/3/2 52/3/2
f 52/1/2 53/1/2 54/1/2
f 51/1/2 52/1/2 54/1/2
f 54/1/2 53/1/2 55/1/2
f 56/2/2 57/2/2 59/2/2
f 59/2/2 57/2/2 60/2/2
f 58/3/2 59/3/2 61/3/2
f 61/3/2 59/3/2 62/3/2
f 63/3/2 64/3/2 65/3/2
f 65/3/2 64/3/2 66/3/2
f 70/4/3 68/4/3 67/4/3
f 71/3/3 69/3/3 68/3/3
f 71/4/3 68/4/3 70/4/3
f 72/3/3 69/3/3 71/3/3
f 75/3/3 74/3/3 73/3/3
f 76/3/3 74/3/3 75/3/3
f 80/3/3 78/3/3 77/3/3
f 81/3/3 78/3/3 80/3/3
f 83/2/3 80/2/3 79/2/3
f 84/3/3 81/3/3 80/3/3
f 84/2/3 80/2/3 83/2/3
f 85/1/3 82/1/3 81/1/3
f 85/3/3 81/3/3 84/3/3
f 88/1/3 82/1/3 85/1/3
f 89/1/3 82/1/3 88/1/3
f 90/2/3 87/2/3 86/2/3
f 91/2/3 87/2/3 90/2/3
f 95/2/3 93/2/3 92/2/3
f 95/3/3 94/3/3 93/3/3
f 96/3/3 94/3/3 95/3/3
f 97/2/3 95/2/3 92/2/3
f 98/2/3 95/2/3 97/2/3
f 101/3/3 100/3/3 99/3/3
f 102/3/3 100/3/3 101/3/3
f 103/3/3 100/3/3 102/3/3
f 106/3/3 105/3/3 104/3/3
f 107/3/3 105/3/3 106/3/3
f 108/3/4 109/3/4 110/3/4
f 110/3/4 109/3/4 111/3/4
f 112/2/4 113/2/4 114/2/4
f 114/2/4 113/2/4 115/2/4
f 116/2/4 117/2/4 118/2/4
f 118/2/4 117/2/4 119/2/4
f 118/1/4 119/1/4 122/1/4
f 119/3/4 120/3/4 123/3/4
f 122/1/4 119/1/4 123/1/4
f 120/1/4 121/1/4 124/1/4
f 123/3/4 120/3/4 124/3/4
f 124/1/4 121/1/4 125/1/4
f 123/3/4 124/3/4 126/3/4
f 126/3/4 124/3/4 127/3/4
f 128/3/4 129/3/4 130/3/4
f 130/3/4 129/3/4 131/3/4
f 132/3/4 133/3/4 134/3/4
f 134/3/4 133/3/4 135/3/4
f 138/4/5 137/4/5 136/4/5
f 139/4/5 137/4/5 138/4/5
f 141/2/5 139/2/5 138/2/5
f 142/2/5 139/2/5 141/2/5
f 145/2/5 142/2/5 141/2/5
f 145/2/5 143/2/5 142/2/5
f 145/2/5 141/2/5 140/2/5
f 146/2/5 143/2/5 145/2/5
f 147/2/5 143/2/5 146/2/5
f 148/2/5 145/2/5 144/2/5
f 149/1/5 146/1/5 145/1/5
f 149/2/5 145/2/5 148/2/5
f 150/1/5 146/1/5 149/1/5
f 153/3/5 152/3/5 151/3/5
f 154/3/5 152/3/5 153/3/5
f 159/3/5 156/3/5 155/3/5
f 160/3/5 156/3/5 159/3/5
f 161/3/5 158/3/5 157/3/5
f 162/3/5 158/3/5 161/3/5
f 168/3/5 164/3/5 163/3/5
f 168/3/5 165/3/5 164/3/5
f 169/3/5 165/3/5 168/3/5
f 170/3/5 167/3/5 166/3/5
f 171/3/5 167/3/5 170/3/5
f 172/3/5 167/3/5 171/3/5
f 173/2/6 174/2/6 175/2/6
f 175/2/6 174/2/6 176/2/6
f 177/3/6 178/3/6 179/3/6
f 177/3/6 179/3/6 183/3/6
f 179/3/6 180/3/6 183/3/6
f 183/3/6 180/3/6 184/3/6
f 184/3/6 180/3/6 185/3/6
f 181/3/6 182/3/6 187/3/6
f 186/3/6 187/3/6 190/3/6
f 187/3/6 182/3/6 190/3/6
f 188/3/6 189/3/6 191/3/6
f 191/3/6 189/3/6 192/3/6
f 186/3/6 190/3/6 193/3/6
f 193/3/6 190/3/6 194/3/6
f 186/3/6 193/3/6 195/3/6
f 195/3/6 193/3/6 196/3/6
f 197/1/6 198/1/6 199/1/6
f 199/1/6 198/1/6 200/1/6
